<?xml version="1.0" encoding="utf-8"?>
<svg viewBox="-0.426 -0.581 409.752 390.375" xmlns="http://www.w3.org/2000/svg">
  <g transform="matrix(1, 0, 0, 1, -33.9086, -22.273296)">
    <g>
      <g>
        <g>
          <g>
            <g>
              <g>
                <g>
                  <polygon points="193.27 161.934 162.915 161.934 162.915 105.573 132.559 141.691 102.204 105.573 102.204 161.934 71.748 161.934 71.748 63.678 102.104 63.678 132.461 99.796 162.817 63.678 193.173 63.678 193.173 161.934" style=""/>
                  <polygon points="272.168 233.838 205.828 156.429 250.031 156.429 250.031 81.247 294.234 81.247 294.234 156.429 338.437 156.429"/>
                  <path d="M 417.626 21.692 L 59.093 21.692 C 44.825 21.692 33.483 34.603 33.483 50.462 L 33.483 383.297 C 33.483 399.156 44.825 412.067 59.093 412.067 L 417.626 412.067 C 431.894 412.067 443.235 399.156 443.235 383.297 L 443.235 50.462 C 443.235 34.603 431.894 21.692 417.626 21.692 Z M 323.328 222.674 C 320.584 219.116 316.377 216.371 311.621 216.371 C 306.956 216.371 303.663 218.811 299.913 222.166 L 282.81 238.228 C 279.243 241.074 276.408 243.006 272.292 243.006 C 268.359 243.006 264.792 241.379 262.231 238.838 C 261.316 237.923 259.67 236.195 258.298 234.67 L 209.091 175.504 C 205.433 170.827 199.945 167.879 193.817 167.879 C 187.689 167.879 182.018 171.234 178.451 175.809 L 62.751 330.942 L 62.751 66.117 C 63.666 59.204 68.513 54.223 74.733 54.223 L 401.894 54.223 C 408.205 54.223 413.327 59.408 413.693 66.422 L 413.967 331.145 L 323.328 222.674 Z"/>
                  <g id="Layer_1" transform="matrix(1, 0, 0, 1, -10.988575, -40.64473)"/>
                </g>
              </g>
            </g>
          </g>
        </g>
      </g>
    </g>
  </g>
</svg>